<?xml version="1.0" encoding="UTF-8" standalone="no"?>
<!-- Created with Inkscape (http://www.inkscape.org/) -->

<svg
   xmlns:dc="http://purl.org/dc/elements/1.1/"
   xmlns:cc="http://creativecommons.org/ns#"
   xmlns:rdf="http://www.w3.org/1999/02/22-rdf-syntax-ns#"
   xmlns:svg="http://www.w3.org/2000/svg"
   xmlns="http://www.w3.org/2000/svg"
   xmlns:xlink="http://www.w3.org/1999/xlink"
   xmlns:sodipodi="http://sodipodi.sourceforge.net/DTD/sodipodi-0.dtd"
   xmlns:inkscape="http://www.inkscape.org/namespaces/inkscape"
   width="84.637321mm"
   height="84.637314mm"
   viewBox="0 0 299.89602 299.89599"
   id="svg2"
   version="1.1"
   inkscape:version="0.91 r13725"
   sodipodi:docname="VECTOR-SVG.svg">
  <defs
     id="defs4">
    <linearGradient
       inkscape:collect="always"
       id="linearGradient4259">
      <stop
         style="stop-color:#f60;stop-opacity:1;"
         offset="0"
         id="stop4261" />
      <stop
         style="stop-color:#ffb380;stop-opacity:1"
         offset="1"
         id="stop4263" />
    </linearGradient>
    <linearGradient
       inkscape:collect="always"
       id="linearGradient4251">
      <stop
         style="stop-color:black;stop-opacity:1"
         offset="0"
         id="stop4253" />
      <stop
         style="stop-color:#b3b3b3;stop-opacity:1"
         offset="1"
         id="stop4255" />
    </linearGradient>
    <linearGradient
       inkscape:collect="always"
       id="linearGradient4243">
      <stop
         style="stop-color:#666;stop-opacity:1"
         offset="0"
         id="stop4245" />
      <stop
         style="stop-color:white;stop-opacity:1"
         offset="1"
         id="stop4247" />
    </linearGradient>
    <filter
       inkscape:collect="always"
       style="color-interpolation-filters:sRGB"
       id="filter4160"
       x="-0.0096500106"
       width="1.0193"
       y="-0.015862985"
       height="1.031726">
      <feGaussianBlur
         inkscape:collect="always"
         stdDeviation="0.96273933"
         id="feGaussianBlur4162" />
    </filter>
    <linearGradient
       inkscape:collect="always"
       xlink:href="#linearGradient4243"
       id="linearGradient4249"
       x1="321.33984"
       y1="481.86719"
       x2="321.33984"
       y2="377.2832"
       gradientUnits="userSpaceOnUse" />
    <linearGradient
       inkscape:collect="always"
       xlink:href="#linearGradient4251"
       id="linearGradient4257"
       x1="319.76797"
       y1="481.86719"
       x2="319.76797"
       y2="523.94165"
       gradientUnits="userSpaceOnUse" />
    <linearGradient
       inkscape:collect="always"
       xlink:href="#linearGradient4259"
       id="linearGradient4265"
       x1="316.18405"
       y1="300.02396"
       x2="312.18542"
       y2="695.52222"
       gradientUnits="userSpaceOnUse" />
    <filter
       inkscape:collect="always"
       style="color-interpolation-filters:sRGB"
       id="filter4286"
       x="-0.012"
       width="1.024"
       y="-0.012"
       height="1.024">
      <feGaussianBlur
         inkscape:collect="always"
         stdDeviation="1.4643359"
         id="feGaussianBlur4288" />
    </filter>
  </defs>
  <sodipodi:namedview
     id="base"
     pagecolor="#ffffff"
     bordercolor="#666666"
     borderopacity="1.0"
     inkscape:pageopacity="0.0"
     inkscape:pageshadow="2"
     inkscape:zoom="1.3291244"
     inkscape:cx="104.30459"
     inkscape:cy="128.13506"
     inkscape:document-units="px"
     inkscape:current-layer="layer1"
     showgrid="false"
     inkscape:snap-bbox="true"
     inkscape:bbox-paths="true"
     inkscape:bbox-nodes="true"
     inkscape:snap-bbox-edge-midpoints="true"
     inkscape:snap-bbox-midpoints="true"
     inkscape:object-paths="true"
     inkscape:snap-intersection-paths="true"
     inkscape:object-nodes="true"
     inkscape:snap-smooth-nodes="true"
     inkscape:snap-midpoints="true"
     inkscape:snap-global="true"
     fit-margin-top="0"
     fit-margin-left="0"
     fit-margin-right="0"
     fit-margin-bottom="0" />
  <metadata
     id="metadata7">
    <rdf:RDF>
      <cc:Work
         rdf:about="">
        <dc:format>image/svg+xml</dc:format>
        <dc:type
           rdf:resource="http://purl.org/dc/dcmitype/StillImage" />
        <dc:title></dc:title>
      </cc:Work>
    </rdf:RDF>
  </metadata>
  <g
     inkscape:label="Camada 1"
     inkscape:groupmode="layer"
     id="layer1"
     transform="translate(-166.23559,-296.50903)">
    <g
       id="g4290"
       inkscape:export-xdpi="350"
       inkscape:export-ydpi="350">
      <path
         style="opacity:1;fill:#2b1100;fill-opacity:1;stroke:none;stroke-width:1;stroke-linecap:butt;stroke-linejoin:miter;stroke-miterlimit:4;stroke-dasharray:none;stroke-dashoffset:0;stroke-opacity:1;filter:url(#filter4286)"
         d="m 185.99219,300.02344 c -8.99772,0 -16.24219,7.24446 -16.24219,16.24218 l 0,260.38282 c 0,8.99772 7.24447,16.24218 16.24219,16.24218 l 260.38476,0 c 8.99773,0 16.24024,-7.24446 16.24024,-16.24218 l 0,-260.38282 c 0,-8.99773 -7.24251,-16.24218 -16.24024,-16.24218 l -260.38476,0 z m 0,3.73242 260.38476,0 c 6.99573,0 12.50977,5.51405 12.50977,12.50976 l 0,260.38477 c 0,6.99571 -5.51404,12.50977 -12.50977,12.50977 l -260.38476,0 c -6.99572,0 -12.50977,-5.51406 -12.50977,-12.50977 l 0,-260.38477 c 0,-6.9957 5.51404,-12.50976 12.50977,-12.50976 z m 14.09765,8.39453 c -10.02566,0 -18.21289,8.18722 -18.21289,18.21289 l 0,232.18945 c 0,10.02567 8.18722,18.21289 18.21289,18.21289 l 232.18946,0 c 10.02567,2e-5 18.21289,-8.18722 18.21289,-18.21289 l 0,-232.18945 c 0,-10.02567 -8.18723,-18.21289 -18.21289,-18.21289 l -232.18946,0 z"
         id="path4276"
         inkscape:connector-curvature="0" />
      <path
         id="rect4144"
         d="m 185.99219,300.02344 c -8.99772,0 -16.24219,7.24446 -16.24219,16.24218 l 0,260.38282 c 0,8.99772 7.24447,16.24218 16.24219,16.24218 l 260.38476,0 c 8.99773,0 16.24024,-7.24446 16.24024,-16.24218 l 0,-260.38282 c 0,-8.99773 -7.24251,-16.24218 -16.24024,-16.24218 l -260.38476,0 z m 0,3.73242 260.38476,0 c 6.99573,0 12.50977,5.51405 12.50977,12.50976 l 0,260.38477 c 0,6.99571 -5.51404,12.50977 -12.50977,12.50977 l -260.38476,0 c -6.99572,0 -12.50977,-5.51406 -12.50977,-12.50977 l 0,-260.38477 c 0,-6.9957 5.51404,-12.50976 12.50977,-12.50976 z m 14.09765,8.39453 c -10.02566,0 -18.21289,8.18722 -18.21289,18.21289 l 0,232.18945 c 0,10.02567 8.18722,18.21289 18.21289,18.21289 l 232.18946,0 c 10.02567,2e-5 18.21289,-8.18722 18.21289,-18.21289 l 0,-232.18945 c 0,-10.02567 -8.18723,-18.21289 -18.21289,-18.21289 l -232.18946,0 z"
         style="opacity:1;fill:url(#linearGradient4265);fill-opacity:1;stroke:none;stroke-width:1;stroke-linecap:butt;stroke-linejoin:miter;stroke-miterlimit:4;stroke-dasharray:none;stroke-dashoffset:0;stroke-opacity:1"
         inkscape:connector-curvature="0" />
      <path
         style="font-style:normal;font-variant:normal;font-weight:bold;font-stretch:condensed;font-size:180px;line-height:125%;font-family:'Agency FB';-inkscape-font-specification:'Agency FB Bold Condensed';text-align:start;writing-mode:lr-tb;text-anchor:start;opacity:1;fill:#2b1100;fill-opacity:0.5125;stroke:none;stroke-width:1;stroke-linecap:butt;stroke-linejoin:miter;stroke-miterlimit:4;stroke-dasharray:none;stroke-dashoffset:0;stroke-opacity:1;filter:url(#filter4160)"
         d="m 209.97997,371.2835 c -4.80595,0 -9.13874,1.30168 -12.12891,4.35547 -2.99016,3.05378 -4.23046,7.40157 -4.23047,12.26758 l 0,30.58594 c 1e-5,5.34028 1.97416,10.26484 5.70118,13.8457 a 3.9665526,3.9665526 0 0 0 0.0215,0.0215 l 39.98047,37.84961 0,21.3086 -17.20313,0 0,-24.07032 a 3.9665526,3.9665526 0 0 0 -3.96679,-3.96679 l -20.56641,0 a 3.9665526,3.9665526 0 0 0 -3.9668,3.96679 l 0,32.78321 c 1e-5,4.84123 1.24668,9.17491 4.24024,12.21093 2.99356,3.03603 7.31788,4.32422 12.11914,4.32422 l 41.39648,0 c 4.82585,0 9.16223,-1.28164 12.17383,-4.31445 3.0116,-3.03281 4.27344,-7.37485 4.27344,-12.2207 l 0,-32.78321 c 0,-5.48139 -1.95078,-10.49216 -5.72852,-14.04883 l -0.002,-0.002 -39.97266,-37.67187 0,-19.19336 17.20313,0 0,21.96094 a 3.9665526,3.9665526 0 0 0 3.9668,3.96679 l 20.5664,0 a 3.9665526,3.9665526 0 0 0 3.9668,-3.96679 l 0,-30.76172 c 0,-4.82119 -1.26829,-9.14916 -4.2832,-12.16407 -3.01491,-3.01491 -7.34288,-4.2832 -12.16407,-4.2832 l -41.39648,0 z m 66.26953,0 a 3.9665526,3.9665526 0 0 0 -3.89648,4.71094 l 26.27929,137.72461 a 3.9665526,3.9665526 0 0 0 3.89649,3.22265 l 20.47851,0 a 3.9665526,3.9665526 0 0 0 3.89454,-3.2207 l 26.36718,-137.72461 a 3.9665526,3.9665526 0 0 0 -3.89453,-4.71289 l -20.56641,0 a 3.9665526,3.9665526 0 0 0 -3.91406,3.32422 l -12.07226,73.60156 -12.00391,-73.59765 a 3.9665526,3.9665526 0 0 0 -3.91406,-3.32813 l -20.6543,0 z m 97.29492,0 c -4.83049,0 -9.17533,1.29508 -12.18359,4.3457 -3.00826,3.05063 -4.26367,7.40675 -4.26367,12.27735 l 0,112.32422 c 0,4.83198 1.22049,9.14906 4.17773,12.1914 2.95724,3.04234 7.25355,4.34375 12.00586,4.34375 l 43.24219,0 c 4.85048,0 9.20091,-1.27512 12.23047,-4.30469 3.02956,-3.02955 4.3047,-7.37999 4.30468,-12.23046 l 0,-61.08399 a 3.9665526,3.9665526 0 0 0 -3.96679,-3.96679 l -35.94727,0 a 3.9665526,3.9665526 0 0 0 -3.96679,3.96679 l 0,17.49024 a 3.9665526,3.9665526 0 0 0 3.96679,3.96679 l 11.32617,0 0,30.5625 -18.87304,0 0,-94.2832 18.87304,0 0,20.37891 a 3.9665526,3.9665526 0 0 0 3.9668,3.96679 l 20.6543,0 a 3.9665526,3.9665526 0 0 0 3.96679,-3.96679 l 0,-29.35547 c 0,-4.87519 -1.26864,-9.23968 -4.29492,-12.28711 -3.02627,-3.04744 -7.38513,-4.33594 -12.24023,-4.33594 l -42.97852,0 z"
         id="path4146"
         inkscape:connector-curvature="0" />
      <path
         id="path4226"
         d="m 217.98047,377.2832 c -4.80595,0 -9.13874,1.30168 -12.12891,4.35547 -2.99016,3.05378 -4.23046,7.40157 -4.23047,12.26758 l 0,30.58594 c 1e-5,5.34028 1.97416,10.26484 5.70118,13.8457 a 3.9665526,3.9665526 0 0 0 0.0215,0.0215 l 39.98047,37.8496 0,0.0977 c 0.14371,0.0404 0.28594,0.0907 0.42969,0.13086 4.14086,1.1555 8.29511,2.19598 12.45898,3.07812 4.16387,0.88216 8.33771,1.60547 12.51758,2.12696 1.02999,0.1285 2.06305,0.12131 3.09375,0.22461 l 0,-8.41992 c 0,-5.48139 -1.95078,-10.49216 -5.72852,-14.04883 l -0.002,-0.002 -39.97266,-37.67187 0,-19.19336 17.20313,0 0,21.96094 a 3.9665526,3.9665526 0 0 0 3.9668,3.96679 l 20.5664,0 a 3.9665526,3.9665526 0 0 0 3.9668,-3.96679 l 0,-30.76172 c 0,-4.82119 -1.26829,-9.14915 -4.2832,-12.16406 -3.01491,-3.01491 -7.34288,-4.28321 -12.16407,-4.28321 l -41.39648,0 z m 66.26953,0 a 3.9665526,3.9665526 0 0 0 -3.89648,4.71094 l 19.02734,99.72266 c 3.68252,-0.46799 7.36466,-1.06477 11.04297,-2.01758 2.0929,-0.54214 4.18506,-1.16672 6.27539,-1.88086 2.09033,-0.71414 4.17874,-1.51701 6.26562,-2.41406 2.08689,-0.89706 4.17135,-1.88959 6.25391,-2.98047 2.08256,-1.09089 4.16287,-2.28055 6.24023,-3.57617 3.69617,-2.30526 6.96083,-4.24517 10.39649,-6.33985 l 15.41406,-80.51172 A 3.9665526,3.9665526 0 0 0 357.375,377.2832 l -20.56641,0 a 3.9665526,3.9665526 0 0 0 -3.91406,3.32422 l -12.07226,73.60156 -12.00391,-73.59765 a 3.9665526,3.9665526 0 0 0 -3.91406,-3.32813 l -20.6543,0 z m 97.29492,0 c -4.83049,0 -9.17533,1.29509 -12.18359,4.34571 -3.00826,3.05063 -4.26367,7.40674 -4.26367,12.27734 l 0,57.58984 c 1.96934,-1.04456 4.07488,-2.3187 5.99414,-3.25586 2.6995,-1.31814 5.35457,-2.52676 7.98632,-3.62109 2.63176,-1.09433 5.2392,-2.07435 7.83985,-2.93164 2.22686,-0.73408 4.4507,-1.33153 6.67969,-1.88281 l 0,-36.92188 18.87304,0 0,20.37891 a 3.9665526,3.9665526 0 0 0 3.9668,3.9668 l 20.6543,0 a 3.9665526,3.9665526 0 0 0 3.96679,-3.9668 l 0,-29.35547 c 0,-4.87519 -1.26864,-9.23968 -4.29492,-12.28711 -3.02627,-3.04744 -7.38513,-4.33594 -12.24023,-4.33594 l -42.97852,0 z"
         style="font-style:normal;font-variant:normal;font-weight:bold;font-stretch:condensed;font-size:180px;line-height:125%;font-family:'Agency FB';-inkscape-font-specification:'Agency FB Bold Condensed';text-align:start;writing-mode:lr-tb;text-anchor:start;opacity:1;fill:url(#linearGradient4249);fill-opacity:1;stroke:none;stroke-width:1;stroke-linecap:butt;stroke-linejoin:miter;stroke-miterlimit:4;stroke-dasharray:none;stroke-dashoffset:0;stroke-opacity:1"
         inkscape:connector-curvature="0" />
      <path
         id="path4222"
         d="m 393.59766,439.9082 c -2.21838,0.54943 -4.43178,1.1442 -6.64844,1.875 -2.59822,0.85659 -5.20226,1.8361 -7.83203,2.92969 -2.62978,1.09359 -5.28448,2.30173 -7.98242,3.61914 -1.93289,0.94383 -4.05311,2.22638 -6.03711,3.2793 l 0,54.61914 c 0,4.83198 1.22049,9.14907 4.17773,12.19141 2.95724,3.04232 7.25355,4.34375 12.00586,4.34374 l 43.24219,0 c 4.85048,0 9.20091,-1.27511 12.23047,-4.30468 3.02956,-3.02955 4.3047,-7.38 4.30468,-12.23047 l 0,-61.08399 a 3.9665526,3.9665526 0 0 0 -3.96679,-3.96679 l -35.94727,0 a 3.9665526,3.9665526 0 0 0 -3.9668,3.96679 l 0,17.49024 a 3.9665526,3.9665526 0 0 0 3.9668,3.9668 l 11.32617,0 0,30.5625 -18.87304,0 0,-57.25782 z m -47.76758,22.73242 c -3.41143,2.0804 -6.6497,4.00487 -10.31836,6.29297 -2.07946,1.29694 -4.16137,2.48811 -6.2461,3.58008 -2.0847,1.09197 -4.17264,2.08448 -6.26171,2.98242 -2.08907,0.89794 -4.17896,1.70118 -6.27149,2.41602 -2.09253,0.71484 -4.18615,1.34209 -6.28125,1.88477 -3.68082,0.95339 -7.36585,1.55107 -11.05078,2.01953 l 7.23242,37.90234 a 3.9665526,3.9665526 0 0 0 3.89649,3.22266 l 20.47851,0 a 3.9665526,3.9665526 0 0 0 3.89453,-3.22071 l 10.92774,-57.08008 z m -140.24219,6.83985 a 3.9665526,3.9665526 0 0 0 -3.9668,3.9668 l 0,32.7832 c 1e-5,4.84123 1.24668,9.17492 4.24024,12.21094 2.99356,3.03603 7.31788,4.32422 12.11914,4.32421 l 41.39648,0 c 4.82585,0 9.16223,-1.28164 12.17383,-4.31445 3.0116,-3.03281 4.27344,-7.37485 4.27344,-12.2207 l 0,-24.26172 c -1.03392,-0.10352 -2.07034,-0.0977 -3.10352,-0.22656 -4.18333,-0.52174 -8.36064,-1.24634 -12.52734,-2.12891 -4.1667,-0.88256 -8.32196,-1.92217 -12.46484,-3.07812 -0.13525,-0.0377 -0.26909,-0.0851 -0.4043,-0.12305 l 0,21.10547 -17.20313,0 0,-24.07031 a 3.9665526,3.9665526 0 0 0 -1.36523,-2.98829 c -0.93669,-0.32178 -1.86222,-0.65227 -2.79688,-0.97851 l -20.37109,0 z"
         style="font-style:normal;font-variant:normal;font-weight:bold;font-stretch:condensed;font-size:180px;line-height:125%;font-family:'Agency FB';-inkscape-font-specification:'Agency FB Bold Condensed';text-align:start;writing-mode:lr-tb;text-anchor:start;opacity:1;fill:url(#linearGradient4257);fill-opacity:1;stroke:none;stroke-width:1;stroke-linecap:butt;stroke-linejoin:miter;stroke-miterlimit:4;stroke-dasharray:none;stroke-dashoffset:0;stroke-opacity:1"
         inkscape:connector-curvature="0" />
      <path
         inkscape:connector-curvature="0"
         id="path4168"
         d="m 216.97988,376.28347 a 1.0001,1.0001 0 0 0 -0.13867,0.01 c -4.93242,0.0256 -9.50706,1.37846 -12.70508,4.64453 -3.2254,3.29403 -4.51561,7.93281 -4.51562,12.96875 l 0,30.58594 c 1e-5,5.58672 2.07771,10.79042 6.00781,14.5664 l 0.008,0.008 a 1.0001,1.0001 0 0 0 0.0195,0.0176 l 39.66797,37.55469 0,19.87891 -15.20312,0 0,-23.07032 c 1.6e-4,-2.73133 -2.23547,-4.96696 -4.9668,-4.96679 l -20.56641,0 c -2.73134,-1.7e-4 -4.96696,2.23546 -4.96679,4.96679 l 0,32.78321 c 1e-5,5.0129 1.2972,9.63615 4.52734,12.91211 3.23231,3.27816 7.8519,4.62304 12.83203,4.62304 l 41.39649,0 c 5.0029,0 9.63228,-1.3379 12.88281,-4.61132 3.24945,-3.27234 4.56445,-7.90438 4.56445,-12.92383 l 0,-32.78321 c 0,-5.71865 -2.04903,-11.01712 -6.04297,-14.77734 a 1.0001,1.0001 0 0 0 -0.002,-0.002 l -39.6582,-37.375 0,-17.76172 15.20312,0 0,20.96094 c -1.6e-4,2.73134 2.23546,4.96696 4.9668,4.96679 l 20.5664,0 c 2.73134,1.7e-4 4.96696,-2.23545 4.9668,-4.96679 l 0,-30.76172 c 0,-4.99657 -1.32206,-9.61698 -4.57617,-12.8711 -3.25411,-3.25411 -7.87453,-4.57617 -12.87109,-4.57617 l -41.39649,0 z m 66.26953,0 c -3.09626,-3.1e-4 -5.45997,2.85719 -4.8789,5.89844 l 26.27929,137.72461 c 0.44591,2.33543 2.50129,4.03535 4.87891,4.03516 l 20.47852,0 c 2.37595,-7.6e-4 4.43018,-1.69963 4.87695,-4.03321 l 26.36719,-137.72461 c 0.58262,-3.04115 -1.7805,-5.89947 -4.87696,-5.90039 l -20.5664,0 c -2.42555,9e-5 -4.50956,1.76858 -4.90235,4.16211 l -11.08203,67.56445 -11.01953,-67.56054 c -0.39065,-2.39546 -2.47329,-4.16554 -4.90039,-4.16602 l -20.6543,0 z m 97.29492,0 c -5.00922,0 -9.64957,1.34995 -12.89648,4.64258 -3.24477,3.29047 -4.55078,7.93803 -4.55078,12.98047 l 0,112.32422 c 0,5.00037 1.26999,9.60395 4.46094,12.88672 3.19529,3.28725 7.78778,4.64843 12.72265,4.64843 l 43.24219,0 c 5.02574,0 9.66868,-1.32882 12.9375,-4.59765 3.26882,-3.26881 4.59768,-7.91177 4.59766,-12.9375 l 0,-61.08399 c 1.6e-4,-2.73133 -2.23547,-4.96696 -4.9668,-4.96679 l -35.94727,0 c -2.73133,-1.7e-4 -4.96696,2.23546 -4.96679,4.96679 l 0,17.49024 c -1.7e-4,2.73133 2.23546,4.96696 4.96679,4.9668 l 10.32618,0 0,28.5625 -16.87305,0 0,-92.28321 16.87305,0 0,19.37891 c -1.7e-4,2.73134 2.23545,4.96697 4.96679,4.9668 l 20.6543,0 c 2.73133,1.6e-4 4.96696,-2.23547 4.9668,-4.9668 l 0,-29.35547 c 0,-5.04867 -1.32174,-9.70517 -4.58594,-12.99219 -3.26526,-3.2881 -7.91719,-4.63086 -12.94922,-4.63086 l -42.97852,0 z m -163.56445,2 41.39649,0 c 4.64581,0 8.68132,1.21453 11.45703,3.99024 2.7757,2.7757 3.99023,6.81122 3.99023,11.45703 l 0,30.76172 c 1e-4,1.65037 -1.31642,2.9669 -2.9668,2.96679 l -20.5664,0 c -1.65037,1.1e-4 -2.9669,-1.31642 -2.9668,-2.96679 l 0,-21.96094 a 1.0001,1.0001 0 0 0 -1,-1 l -17.20312,0 a 1.0001,1.0001 0 0 0 -1,1 l 0,19.19336 a 1.0001,1.0001 0 0 0 0.31445,0.72656 l 39.96094,37.66211 a 1.0001,1.0001 0 0 0 0.0137,0.0117 c 3.56154,3.35312 5.41406,8.07814 5.41406,13.32226 l 0,32.78321 c 0,4.67225 -1.21062,8.72234 -3.98437,11.51562 -2.77267,2.7922 -6.8141,4.01953 -11.46289,4.01953 l -41.39649,0 c -4.62239,0 -8.65339,-1.23345 -11.4082,-4.02734 -2.75698,-2.79608 -3.95116,-6.83825 -3.95117,-11.50781 l 0,-32.78321 c -1e-4,-1.65037 1.31642,-2.96689 2.96679,-2.96679 l 20.56641,0 c 1.65037,-1e-4 2.9669,1.31643 2.9668,2.96679 l 0,24.07032 a 1.0001,1.0001 0 0 0 1,1 l 17.20312,0 a 1.0001,1.0001 0 0 0 1,-1 l 0,-21.3086 a 1.0001,1.0001 0 0 0 -0.3125,-0.72656 l -39.9707,-37.83984 -0.0117,-0.0117 a 1.0001,1.0001 0 0 0 -0.0156,-0.0156 c -3.52393,-3.38574 -5.39256,-8.02921 -5.39257,-13.12304 l 0,-30.58594 c 1e-5,-4.69608 1.19039,-8.75483 3.94531,-11.56836 2.75171,-2.81025 6.78868,-4.05469 11.41406,-4.05469 z m 66.26953,0 20.6543,0 c 1.46081,2.9e-4 2.69066,1.04652 2.92578,2.48828 l 12.00391,73.59766 a 1.0001,1.0001 0 0 0 1.97461,0 l 12.07226,-73.59961 0,-0.002 c 0.23713,-1.43966 1.46849,-2.48433 2.92774,-2.48438 l 20.5664,0 c 1.88252,5.6e-4 3.26632,1.67455 2.91211,3.52344 l -26.36719,137.72461 c -0.26874,1.40374 -1.48287,2.4097 -2.9121,2.41016 l -20.47852,0 c -1.43026,1.1e-4 -2.64583,-1.00528 -2.91406,-2.41016 l -26.2793,-137.72456 c -0.35326,-1.84894 1.03168,-3.52363 2.91406,-3.52344 z m 97.29492,0 42.97852,0 c 4.67817,0 8.74202,1.23229 11.5293,4.03906 2.78835,2.80785 4.00586,6.88228 4.00586,11.58399 l 0,29.35547 c 10e-5,1.65037 -1.31643,2.96689 -2.9668,2.9668 l -20.6543,0 c -1.65037,10e-5 -2.96689,-1.31643 -2.96679,-2.9668 l 0,-20.37891 a 1.0001,1.0001 0 0 0 -1,-1 l -18.87305,0 a 1.0001,1.0001 0 0 0 -1,1 l 0,94.28321 a 1.0001,1.0001 0 0 0 1,1 l 18.87305,0 a 1.0001,1.0001 0 0 0 1,-1 l 0,-30.5625 a 1.0001,1.0001 0 0 0 -1,-1 l -11.32618,0 c -1.65037,9e-5 -2.96689,-1.31643 -2.96679,-2.9668 l 0,-17.49024 c -10e-5,-1.65037 1.31642,-2.96689 2.96679,-2.96679 l 35.94727,0 c 1.65037,-10e-5 2.9669,1.31642 2.9668,2.96679 l 0,61.08399 c 2e-5,4.67521 -1.22142,8.73315 -4.01172,11.52344 -2.7903,2.7903 -6.84822,4.01171 -11.52344,4.01171 l -43.24219,0 c -4.56974,0 -8.56988,-1.24358 -11.28906,-4.04101 -2.72354,-2.80191 -3.89453,-6.83055 -3.89453,-11.49414 l 0,-112.32422 c 0,-4.69877 1.20286,-8.76538 3.97461,-11.57617 2.7696,-2.80861 6.8209,-4.04688 11.47265,-4.04688 z"
         style="color:black;font-style:normal;font-variant:normal;font-weight:bold;font-stretch:condensed;font-size:180px;line-height:125%;font-family:'Agency FB';-inkscape-font-specification:'Agency FB Bold Condensed';text-indent:0;text-align:start;text-decoration:none;text-decoration-line:none;text-decoration-style:solid;text-decoration-color:black;letter-spacing:normal;word-spacing:normal;text-transform:none;direction:ltr;block-progression:tb;writing-mode:lr-tb;baseline-shift:baseline;text-anchor:start;white-space:normal;clip-rule:nonzero;display:inline;overflow:visible;visibility:visible;opacity:1;isolation:auto;mix-blend-mode:normal;color-interpolation:sRGB;color-interpolation-filters:linearRGB;solid-color:black;solid-opacity:1;fill:#b3b3b3;fill-opacity:1;fill-rule:nonzero;stroke:none;stroke-width:2;stroke-linecap:round;stroke-linejoin:round;stroke-miterlimit:4;stroke-dasharray:none;stroke-dashoffset:0;stroke-opacity:1;color-rendering:auto;image-rendering:auto;shape-rendering:auto;text-rendering:auto;enable-background:accumulate" />
    </g>
  </g>
</svg>
